<svg version="1.2" xmlns="http://www.w3.org/2000/svg" viewBox="0 0 18 17" width="18" height="17">
	<title>New Project</title>
	<style>
		.s0 { fill: #ffffff } 
	</style>
	<path id="Forma 1" fill-rule="evenodd" class="s0" d="m16.5 14.7c0 1.3-1 2.3-2.2 2.3-1.3 0-2.3-1-2.3-2.3 0-1.3 1-2.3 2.3-2.3 1.2 0 2.2 1 2.2 2.3zm-1.4 0c0-0.5-0.4-0.9-0.8-0.9-0.5 0-0.9 0.4-0.9 0.9 0 0.5 0.4 0.9 0.9 0.9 0.4 0 0.8-0.4 0.8-0.9zm2.9-10.7l-1.7 6.8c0 0.4-0.3 0.6-0.6 0.6h-10.5c-0.3 0-0.6-0.2-0.6-0.6l-2.2-9.4h-1.7c-0.4 0-0.7-0.3-0.7-0.7 0-0.4 0.3-0.7 0.7-0.7h2.2c0.3 0 0.6 0.2 0.7 0.5l0.6 2.6h13.1q0.4 0.1 0.6 0.3c0.1 0.2 0.1 0.4 0.1 0.6zm-1.5 0.5h-12l1.2 5.5h9.5zm-8.2 10.1c0 1.3-1 2.3-2.2 2.3-1.2 0-2.2-1-2.2-2.3 0-1.3 1-2.3 2.2-2.3 1.2 0 2.2 1 2.2 2.3zm-1.3 0c0-0.5-0.4-0.9-0.9-0.9-0.5 0-0.9 0.4-0.9 0.9 0 0.5 0.4 1 0.9 1 0.5 0 0.9-0.5 0.9-1z"/>
</svg>