<svg version="1.2" xmlns="http://www.w3.org/2000/svg" viewBox="0 0 20 20" width="20" height="20">
	<title>New Project</title>
	<style>
		.s0 { fill: #ffffff } 
	</style>
	<path id="Forma 1" fill-rule="evenodd" class="s0" d="m20 13.9c0.1 0.3-0.1 0.6-0.3 0.7l-14.5 5.4q0 0-0.1 0-0.1 0-0.2 0-0.1 0-0.2 0h-4.2c-0.3 0-0.5-0.2-0.5-0.5v-19c0-0.3 0.2-0.5 0.5-0.5h4.2c0.3 0 0.5 0.2 0.5 0.5v5.2l2-4.9c0.2-0.2 0.4-0.4 0.7-0.3l3.7 1.7q0.2 0 0.3 0.2 0.1 0.2 0 0.4l-2 5 3.6-3.8c0.2-0.2 0.5-0.2 0.7 0l2.9 3q0.1 0.1 0.1 0.3 0 0.2-0.1 0.4l-3.8 3.8 4.6-1.8c0.3 0 0.6 0.1 0.7 0.3zm-15.7 5.1v-18h-3.3v18zm3.7-17.3l-2.7 6.6v8.1l0.4-1 0.5-1.2 0.8-2.1 0.5-1.2 0.5-1.3 2.8-6.7zm-2.3 16.2l3.9-3.9 1.6-1.7 4.9-4.9-2.2-2.3-5 5.1-1.4 3.5-0.5 1.3zm13.2-4.1l-1.1-2.9-6.1 2.2-5.2 5.3zm-15.6 3.9q0 0 0 0.1 0 0.1-0.1 0.3 0 0.1-0.1 0.1-0.1 0.2-0.4 0.2 0 0-0.1 0c-0.2 0-0.4-0.1-0.5-0.3q-0.2-0.2-0.2-0.4 0-0.1 0-0.2 0.1-0.2 0.2-0.3 0.2-0.2 0.5-0.2 0 0 0 0c0.4 0 0.7 0.3 0.7 0.7z"/>
</svg>