<svg version="1.2" xmlns="http://www.w3.org/2000/svg" viewBox="0 0 20 14" width="20" height="14">
	<title>New Project</title>
	<style>
		.s0 { fill: #ffffff } 
	</style>
	<path id="Forma 1" fill-rule="evenodd" class="s0" d="m20 1.1v11.8c0 0.6-0.5 1.1-1 1.1h-18c-0.5 0-1-0.5-1-1.1v-11.8c0-0.6 0.5-1.1 1-1.1h18c0.5 0 1 0.5 1 1.1zm-1.4-0.3l-8 6.3c-0.2 0.1-0.4 0.2-0.6 0.2-0.2 0-0.4-0.1-0.6-0.2l-8-6.3zm-4.3 6.7l4.4 5.7q0 0 0 0h-17.4q0 0 0 0l4.4-5.7c0.1-0.2 0.1-0.4-0.1-0.5-0.1-0.2-0.4-0.2-0.5 0l-4.3 5.6v-11.3l8.2 6.5c0.3 0.2 0.7 0.3 1 0.3 0.4 0 0.8-0.1 1.1-0.3l8.2-6.5v11.3l-4.4-5.6c-0.1-0.2-0.3-0.2-0.5 0-0.2 0.1-0.2 0.3-0.1 0.5z"/>
</svg>