<svg version="1.2" xmlns="http://www.w3.org/2000/svg" viewBox="0 0 22 22" width="22" height="22">
	<title>New Project</title>
	<style>
		.s0 { fill: #ffffff } 
	</style>
	<path id="Shape 1" fill-rule="evenodd" class="s0" d="m19.9 16.2c0.5 0.5 0.8 1 0.8 1.6 0 0.5-0.3 1.1-0.7 1.6q-0.3 0.3-0.6 0.6-0.5 0.4-0.9 0.8 0 0 0 0-1 1.2-2.7 1.2-0.1 0-0.3 0c-1.5-0.1-3-0.7-4-1.2-2.8-1.4-5.3-3.3-7.3-5.7-1.7-2-2.8-3.9-3.6-5.9-0.3-0.9-0.7-2.1-0.6-3.5q0.1-1.2 1-2.1l1.6-1.6q0 0 0 0c0.5-0.5 1-0.7 1.6-0.7 0.6 0 1.1 0.2 1.6 0.7q0.4 0.4 0.8 0.8 0.2 0.2 0.5 0.5l1.2 1.2c1 1 1 2.3 0 3.2q-0.2 0.2-0.4 0.4-0.5 0.6-1 1.1c0.2 0.6 0.6 1.2 1.2 2 1.2 1.4 2.5 2.6 3.8 3.5q0.3 0.1 0.5 0.2 0.2 0.1 0.4 0.2l1.4-1.5q0.8-0.7 1.6-0.7c0.6 0 1.1 0.3 1.6 0.7zm-0.9 0.9l-2.6-2.6q0 0 0 0c-0.1-0.1-0.3-0.3-0.6-0.3-0.3 0-0.6 0.2-0.7 0.3l-1.6 1.6c-0.1 0.1-0.4 0.4-0.7 0.4q-0.3 0-0.5-0.2 0 0-0.1 0-0.2-0.1-0.4-0.2-0.3-0.2-0.6-0.4c-1.5-0.9-2.8-2.1-4.1-3.7-0.7-0.9-1.2-1.7-1.5-2.5q0 0 0 0c-0.1-0.3-0.2-0.7 0.2-1.1q0 0 0 0 0.6-0.5 1.2-1.1 0.2-0.2 0.4-0.4c0.5-0.5 0.5-1 0-1.4l-1.3-1.3q-0.2-0.2-0.4-0.5-0.4-0.4-0.9-0.8 0 0 0 0c-0.1-0.2-0.4-0.3-0.6-0.3q-0.4 0-0.8 0.3l-1.5 1.6q-0.6 0.6-0.7 1.4c0 0.8 0.1 1.7 0.5 2.9 0.7 1.9 1.8 3.6 3.4 5.5 1.9 2.3 4.2 4.1 6.9 5.4 0.9 0.5 2.2 1 3.6 1.1q0.1 0 0.2 0c0.7 0 1.3-0.2 1.7-0.7q0.5-0.5 0.9-1 0.3-0.3 0.6-0.5 0 0 0 0 0.7-0.8 0-1.5zm-7.7-12.5c0.1-0.4 0.4-0.6 0.8-0.6 1.4 0.3 2.8 1 3.8 2 1.1 1.1 1.8 2.5 2.1 3.9 0 0.4-0.2 0.7-0.6 0.8q0 0-0.1 0c-0.3 0-0.5-0.3-0.6-0.6-0.2-1.2-0.8-2.3-1.7-3.2-0.8-0.8-1.9-1.4-3.2-1.6-0.3-0.1-0.5-0.4-0.5-0.7zm10.1 5.9q0 0-0.1 0c-0.3 0-0.5-0.2-0.6-0.6-0.4-2.1-1.4-4.1-3-5.7-1.5-1.5-3.5-2.5-5.7-2.9-0.3-0.1-0.5-0.4-0.5-0.7 0.1-0.4 0.4-0.6 0.7-0.5 2.5 0.4 4.7 1.5 6.4 3.3 1.8 1.7 2.9 3.9 3.3 6.3 0.1 0.4-0.1 0.7-0.5 0.8z"/>
</svg>